#!OML:ASF H:\Terrain\Patient Classification 1\Walking\steve\steve.ASF
:FULLY-SPECIFIED
:DEGREES
333
root 7.3425 16.4107 6.55328 6.31244 -4.51812 -3.34545
lowerback -0.225371 3.87179 5.0506
upperback -1.88756 5.22456 1.56134
thorax -1.51392 2.54844 -1.25348
lowerneck -9.94984 -0.943807 -1.99475
upperneck 21.2156 -0.95052 0.163171
head 8.22237 -0.582481 0.296423
rclavicle -1.5294e-014 -1.39149e-014
rhumerus -12.5072 -4.03964 -84.268
rradius 29.601
rwrist -0.79614
rhand -18.5108 -37.0603
rfingers 7.12502
rthumb 7.7773 -66.8972
lclavicle -1.5294e-014 -1.39149e-014
lhumerus -47.5825 5.7437 83.517
lradius 19.2401
lwrist 3.90245
lhand -20.5498 -13.236
lfingers 7.12502
lthumb 5.80898 16.6644
rfemur -10.7502 1.96639 28.1601
rtibia 29.8865
rfoot -18.7314 15.5832
rtoes 11.0229
lfemur -35.3961 5.44702 -17.0685
ltibia 39.3139
lfoot -16.6344 3.76576
ltoes -19.6091
334
root 7.35225 16.4208 6.69339 6.42315 -4.65185 -3.50683
lowerback -0.291272 3.95979 5.12651
upperback -1.98609 5.34257 1.58493
thorax -1.56766 2.60377 -1.26999
lowerneck -9.62973 -0.926111 -1.96376
upperneck 21.0867 -0.925659 0.103088
head 8.11988 -0.573491 0.275221
rclavicle 8.39368e-014 3.49861e-014
rhumerus -12.3063 -2.65792 -84.1981
rradius 30.7199
rwrist -1.98773
rhand -17.8006 -38.8191
rfingers 7.12502
rthumb 8.46273 -68.6296
lclavicle 8.39368e-014 3.49861e-014
lhumerus -48.5892 5.97153 83.1598
lradius 19.3517
lwrist 4.04171
lhand -20.0155 -12.5888
lfingers 7.12502
lthumb 6.32488 17.2968
rfemur -10.0562 1.88264 28.211
rtibia 29.4281
rfoot -18.5967 16.0332
rtoes 11.0331
lfemur -35.6184 4.96376 -16.653
ltibia 36.944
lfoot -16.6507 4.69979
ltoes -20.2457
335
root 7.36304 16.4229 6.82906 6.63786 -4.84878 -3.56945
lowerback -0.468647 4.10274 5.12255
upperback -2.00804 5.52144 1.57179
thorax -1.47975 2.69491 -1.26741
lowerneck -9.65905 -0.951791 -2.05471
upperneck 21.1275 -0.950155 0.136265
head 8.13999 -0.588923 0.298982
rclavicle 7.52897e-015 -8.74653e-015
rhumerus -11.7712 -1.79414 -84.0163
rradius 31.5794
rwrist -2.91832
rhand -16.7522 -40.9571
rfingers 7.12502
rthumb 9.47442 -70.7241
lclavicle 7.52897e-015 -8.74653e-015
lhumerus -49.4017 6.03304 82.9728
lradius 19.5015
lwrist 4.23261
lhand -19.6071 -12.3493
lfingers 7.12502
lthumb 6.71909 17.5241
rfemur -9.34961 1.83209 28.1324
rtibia 28.7736
rfoot -18.8017 16.2388
rtoes 10.2063
lfemur -35.9027 4.736 -16.4255
ltibia 34.6388
lfoot -15.9512 4.98515
ltoes -19.6237
336
root 7.37615 16.4197 6.97093 6.74517 -5.04497 -3.55424
lowerback -0.562504 4.22047 5.05107
upperback -1.9565 5.66865 1.52939
thorax -1.36786 2.77258 -1.26039
lowerneck -9.71529 -1.03047 -2.19582
upperneck 21.0029 -1.05622 0.247275
head 8.11138 -0.638855 0.348961
rclavicle 5.55852e-014 -1.19271e-014
rhumerus -10.9704 -1.29811 -83.8619
rradius 32.1585
rwrist -3.05038
rhand -17.2043 -37.561
rfingers 7.12502
rthumb 9.03819 -67.3473
lclavicle 5.55852e-014 -1.19271e-014
lhumerus -50.214 6.20649 82.6664
lradius 19.7855
lwrist 3.94031
lhand -19.7503 -12.4315
lfingers 7.12502
lthumb 6.58091 17.4463
rfemur -8.4815 1.54541 27.942
rtibia 27.9622
rfoot -18.7259 16.697
rtoes 9.87478
lfemur -36.0891 4.37768 -16.2094
ltibia 32.4661
lfoot -15.4025 5.14774
ltoes -18.1537
337
root 7.39251 16.4194 7.12144 6.75554 -5.24345 -3.69721
lowerback -0.653914 4.3031 5.15759
upperback -1.86332 5.76808 1.51525
thorax -1.20336 2.82571 -1.31959
lowerneck -9.75301 -1.09441 -2.03373
upperneck 20.7317 -1.15408 0.149487
head 8.02712 -0.681164 0.279827
rclavicle 5.49143e-015 6.36111e-015
rhumerus -10.1958 -0.727232 -83.7785
rradius 32.7057
rwrist -3.03385
rhand -17.2692 -38.002
rfingers 7.12502
rthumb 8.97554 -67.7911
lclavicle 5.49143e-015 6.36111e-015
lhumerus -50.9317 6.7658 81.9279
lradius 19.8963
lwrist 3.2275
lhand -20.5683 -12.9146
lfingers 7.12502
lthumb 5.79116 16.9863
rfemur -7.46613 1.17555 27.8935
rtibia 27.0165
rfoot -17.9224 17.6557
rtoes 11.4192
lfemur -36.2415 3.9567 -15.763
ltibia 30.4844
lfoot -15.622 5.44181
ltoes -15.9364
338
root 7.40849 16.4165 7.26846 6.90113 -5.44598 -4.20294
lowerback -0.842966 4.42388 5.62445
upperback -1.77587 5.91161 1.61334
thorax -0.964094 2.89887 -1.45121
lowerneck -9.93923 -1.10648 -1.95637
upperneck 20.5371 -1.18387 0.159848
head 7.99585 -0.687586 0.266667
rclavicle 5.88651e-014 5.24792e-014
rhumerus -9.53662 -0.17212 -83.6265
rradius 33.3964
rwrist -3.43077
rhand -14.6916 -45.0101
rfingers 7.12502
rthumb 11.4621 -74.6767
lclavicle 5.88651e-014 5.24792e-014
lhumerus -51.5415 7.15117 81.4025
lradius 19.9149
lwrist 2.98796
lhand -21.0879 -13.4864
lfingers 7.12502
lthumb 5.28944 16.4275
rfemur -6.44053 1.08644 28.2516
rtibia 25.857
rfoot -17.085 18.2915
rtoes 12.3142
lfemur -36.5822 3.37107 -14.8259
ltibia 28.7404
lfoot -16.0392 6.43232
ltoes -14.9259
339
root 7.42299 16.4043 7.41608 7.06387 -5.6069 -4.7836
lowerback -1.03168 4.54708 6.13039
upperback -1.67889 6.055 1.75541
thorax -0.714406 2.9732 -1.55685
lowerneck -10.1631 -1.09059 -2.19138
upperneck 20.422 -1.18931 0.519053
head 8.00191 -0.672884 0.42337
rclavicle -2.9445e-014 1.23246e-014
rhumerus -8.83301 0.161339 -83.4531
rradius 33.9405
rwrist -3.84326
rhand -16.527 -37.4846
rfingers 7.12502
rthumb 9.69177 -67.2416
lclavicle -2.9445e-014 1.23246e-014
lhumerus -52.1209 7.11622 81.3355
lradius 19.947
lwrist 3.2817
lhand -21.3583 -13.648
lfingers 7.12502
lthumb 5.02839 16.2723
rfemur -5.36396 0.908551 28.7282
rtibia 24.5412
rfoot -16.6723 18.4346
rtoes 10.7195
lfemur -36.9975 2.93891 -13.8451
ltibia 27.2562
lfoot -16.3356 7.29861
ltoes -16.4521
340
root 7.43776 16.3963 7.57054 7.10419 -5.68465 -5.14214
lowerback -1.04498 4.63146 6.39737
upperback -1.68478 6.16571 1.83532
thorax -0.687154 3.02648 -1.61665
lowerneck -10.1822 -1.10841 -2.34875
upperneck 20.402 -1.23966 0.782571
head 8.00205 -0.683187 0.531934
rclavicle 9.2907e-014 2.78299e-015
rhumerus -8.21282 0.427927 -83.2663
rradius 34.1732
rwrist -4.1296
rhand -20.2437 -36.4418
rfingers 7.12502
rthumb 6.10456 -66.3339
lclavicle 9.2907e-014 2.78299e-015
lhumerus -52.8809 7.00807 81.1691
lradius 20.1208
lwrist 3.91397
lhand -21.1095 -13.0731
lfingers 7.12502
lthumb 5.26857 16.8414
rfemur -4.25103 0.549074 28.9431
rtibia 23.4475
rfoot -16.2312 18.773
rtoes 10.5212
lfemur -37.2473 3.04865 -13.4061
ltibia 25.7554
lfoot -16.4305 7.29346
ltoes -19.2093
341
root 7.4487 16.3862 7.71211 7.22811 -5.63902 -5.7546
lowerback -0.898934 4.6851 6.89269
upperback -1.82172 6.257 1.95808
thorax -0.867138 3.05903 -1.77807
lowerneck -10.1061 -1.16586 -2.20317
upperneck 20.4022 -1.32056 0.652896
head 7.98771 -0.723062 0.457025
rclavicle 1.94436e-014 1.70955e-014
rhumerus -7.8346 0.616078 -83.1085
rradius 34.543
rwrist -4.38458
rhand -23.8397 -36.3555
rfingers 7.12502
rthumb 2.63214 -66.319
lclavicle 1.94436e-014 1.70955e-014
lhumerus -53.7997 7.01299 80.7755
lradius 20.5883
lwrist 4.61602
lhand -20.2788 -11.9348
lfingers 7.12502
lthumb 6.0707 17.9582
rfemur -3.48614 0.447023 29.4761
rtibia 22.8671
rfoot -15.819 19.078
rtoes 12.0201
lfemur -37.422 2.79905 -12.5081
ltibia 23.8692
lfoot -16.3284 7.38913
ltoes -19.0811
342
root 7.45902 16.38 7.84496 7.35864 -5.58606 -5.74552
lowerback -0.856683 4.7283 6.77721
upperback -1.87729 6.32149 1.87923
thorax -0.946095 3.08897 -1.80133
lowerneck -9.94359 -1.2563 -1.9821
upperneck 20.1025 -1.44844 0.455928
head 7.85727 -0.785438 0.343647
rclavicle 3.28119e-014 1.98785e-015
rhumerus -7.38649 0.600158 -82.9873
rradius 34.9566
rwrist -4.69985
rhand -24.5537 -37.6614
rfingers 7.12502
rthumb 1.94256 -67.6323
lclavicle 3.28119e-014 1.98785e-015
lhumerus -54.3362 7.01636 80.4278
lradius 20.5239
lwrist 4.90086
lhand -19.6919 -11.7964
lfingers 7.12502
lthumb 6.63728 18.0795
rfemur -2.86852 0.309682 29.3508
rtibia 22.3165
rfoot -15.5061 19.1284
rtoes 12.0439
lfemur -37.6232 1.88471 -11.9823
ltibia 22.0546
lfoot -16.3492 7.86495
ltoes -18.383
